<svg width="633" height="146" viewBox="0 0 633 146" fill="none" xmlns="http://www.w3.org/2000/svg">
<path fill-rule="evenodd" clip-rule="evenodd" d="M177.534 16.749C159.895 6.11704 139.221 0 117.118 0C52.4353 0 0 52.3826 0 117H9.37081C9.37015 116.844 9.36981 116.688 9.36981 116.532C9.36981 57.0837 57.6103 8.89175 117.118 8.89175C137.498 8.89175 156.556 14.5441 172.808 24.3652L177.534 16.749Z" fill="#2A436A"/>
<ellipse cx="177.55" cy="22.9316" rx="7.02705" ry="7.01999" fill="#2A436A"/>
<path fill-rule="evenodd" clip-rule="evenodd" d="M177.082 39.0804C160.483 26.3124 139.688 18.7197 117.118 18.7197C62.785 18.7197 18.7393 62.721 18.7393 116.999L28.1081 116.999C28.1081 67.8904 67.9589 28.0796 117.117 28.0796C140.217 28.0796 161.262 36.8703 177.082 51.2858V39.0804Z" fill="#BE3737"/>
<path fill-rule="evenodd" clip-rule="evenodd" d="M56.2168 117C56.2168 117 56.2168 117 56.2168 117C56.2168 83.3986 83.4832 56.1597 117.118 56.1597C150.753 56.1597 178.019 83.3986 178.019 117C178.019 117 178.019 117 178.019 117H168.648C168.649 116.844 168.65 116.688 168.65 116.531C168.65 88.0998 145.578 65.0514 117.118 65.0514C88.6578 65.0514 65.5863 88.0998 65.5863 116.531C65.5863 116.688 65.587 116.844 65.5883 117H56.2168Z" fill="#BE3737"/>
<ellipse cx="177.55" cy="45.8637" rx="7.02705" ry="7.01999" fill="#BE3737"/>
<path fill-rule="evenodd" clip-rule="evenodd" d="M171.043 71.5177L177.009 64.5581C162.413 47.9346 140.992 37.4399 117.117 37.4399C73.1336 37.4399 37.4775 73.0601 37.4775 117L46.8492 117C46.8482 116.844 46.8477 116.688 46.8477 116.532C46.8477 77.7613 78.3089 46.3318 117.118 46.3318C138.78 46.3318 158.153 56.1233 171.043 71.5177Z" fill="#BE3737"/>
<ellipse cx="177.55" cy="71.604" rx="7.02705" ry="7.01999" fill="#BE3737"/>
<path d="M243.379 85.3008V117H228.555V31.6875H261.191C270.723 31.6875 278.281 34.168 283.867 39.1289C289.492 44.0898 292.305 50.6523 292.305 58.8164C292.305 67.1758 289.551 73.6797 284.043 78.3281C278.574 82.9766 270.898 85.3008 261.016 85.3008H243.379ZM243.379 73.4062H261.191C266.465 73.4062 270.488 72.1758 273.262 69.7148C276.035 67.2148 277.422 63.6211 277.422 58.9336C277.422 54.3242 276.016 50.6523 273.203 47.918C270.391 45.1445 266.523 43.7187 261.602 43.6406H243.379V73.4062ZM330.566 80.4375H320.488V117H305.723V31.6875H320.488V67.5469H328.633L353.711 31.6875H371.875L342.578 72.5273L374.453 117H356.641L330.566 80.4375ZM448.809 99.4805L467.559 53.6016H485.371V117H471.133V75.0469L453.672 117H444.004L426.484 74.8125V117H412.246V53.6016H430.176L448.809 99.4805ZM529.316 118.172C520.293 118.172 512.969 115.34 507.344 109.676C501.758 103.973 498.965 96.3945 498.965 86.9414V85.1836C498.965 78.8555 500.176 73.2109 502.598 68.25C505.059 63.25 508.496 59.3633 512.91 56.5898C517.324 53.8164 522.246 52.4297 527.676 52.4297C536.309 52.4297 542.969 55.1836 547.656 60.6914C552.383 66.1992 554.746 73.9922 554.746 84.0703V89.8125H513.32C513.75 95.0469 515.488 99.1875 518.535 102.234C521.621 105.281 525.488 106.805 530.137 106.805C536.66 106.805 541.973 104.168 546.074 98.8945L553.75 106.219C551.211 110.008 547.812 112.957 543.555 115.066C539.336 117.137 534.59 118.172 529.316 118.172ZM527.617 63.8555C523.711 63.8555 520.547 65.2227 518.125 67.957C515.742 70.6914 514.219 74.5 513.555 79.3828H540.684V78.3281C540.371 73.5625 539.102 69.9688 536.875 67.5469C534.648 65.0859 531.562 63.8555 527.617 63.8555ZM566.113 105.633C570.059 101.219 572.695 97.0391 574.023 93.0938C575.391 89.1094 576.211 84.0312 576.484 77.8594L577.305 53.6016H621.309V105.633H630.098V135.867H615.918V117H575.254V135.867H560.84L560.898 105.633H566.113ZM582.812 105.633H607.129V65.8477H591.133L590.723 77.9766C590.176 89.6172 587.539 98.8359 582.812 105.633Z" fill="#2E2626"/>
</svg>
