<svg width="811" height="256" viewBox="0 0 811 256" fill="none" xmlns="http://www.w3.org/2000/svg">
<path fill-rule="evenodd" clip-rule="evenodd" d="M177.534 16.749C159.895 6.11704 139.221 0 117.118 0C52.4353 0 0 52.3826 0 117H9.37081C9.37015 116.844 9.36981 116.688 9.36981 116.532C9.36981 57.0837 57.6103 8.89175 117.118 8.89175C137.498 8.89175 156.556 14.5441 172.808 24.3652L177.534 16.749Z" fill="url(#paint0_linear_125_315)"/>
<ellipse cx="177.55" cy="22.9316" rx="7.02705" ry="7.01999" fill="url(#paint1_linear_125_315)"/>
<path fill-rule="evenodd" clip-rule="evenodd" d="M177.082 39.0804C160.483 26.3124 139.688 18.7197 117.118 18.7197C62.785 18.7197 18.7393 62.721 18.7393 116.999L28.1081 116.999C28.1081 67.8904 67.9589 28.0796 117.117 28.0796C140.217 28.0796 161.262 36.8703 177.082 51.2858V39.0804Z" fill="url(#paint2_linear_125_315)"/>
<path fill-rule="evenodd" clip-rule="evenodd" d="M56.2168 117C56.2168 117 56.2168 117 56.2168 117C56.2168 83.3986 83.4832 56.1597 117.118 56.1597C150.753 56.1597 178.019 83.3986 178.019 117C178.019 117 178.019 117 178.019 117H168.648C168.649 116.844 168.65 116.688 168.65 116.531C168.65 88.0998 145.578 65.0514 117.118 65.0514C88.6578 65.0514 65.5863 88.0998 65.5863 116.531C65.5863 116.688 65.5869 116.844 65.5883 117H56.2168Z" fill="url(#paint3_linear_125_315)"/>
<ellipse cx="177.55" cy="45.8637" rx="7.02705" ry="7.01999" fill="url(#paint4_linear_125_315)"/>
<path fill-rule="evenodd" clip-rule="evenodd" d="M171.043 71.5177L177.009 64.5581C162.413 47.9346 140.992 37.4399 117.117 37.4399C73.1336 37.4399 37.4775 73.0601 37.4775 117L46.8492 117C46.8482 116.844 46.8477 116.688 46.8477 116.532C46.8477 77.7613 78.3089 46.3318 117.118 46.3318C138.78 46.3318 158.153 56.1233 171.043 71.5177Z" fill="url(#paint5_linear_125_315)"/>
<ellipse cx="177.55" cy="71.604" rx="7.02705" ry="7.01999" fill="url(#paint6_linear_125_315)"/>
<path d="M261.152 83.6016V117H249.902V31.6875H281.367C290.703 31.6875 298.008 34.0703 303.281 38.8359C308.594 43.6016 311.25 49.9102 311.25 57.7617C311.25 66.043 308.652 72.4297 303.457 76.9219C298.301 81.375 290.898 83.6016 281.25 83.6016H261.152ZM261.152 74.4023H281.367C287.383 74.4023 291.992 72.9961 295.195 70.1836C298.398 67.332 300 63.2305 300 57.8789C300 52.8008 298.398 48.7383 295.195 45.6914C291.992 42.6445 287.598 41.0625 282.012 40.9453H261.152V74.4023ZM341.754 78.6797H331.383V117H320.133V31.6875H331.383V69.3047H340.172L369.996 31.6875H384L351.422 73.0547L386.402 117H372.633L341.754 78.6797ZM452.777 31.6875L480.668 101.297L508.559 31.6875H523.148V117H511.898V83.7773L512.953 47.918L484.945 117H476.332L448.383 48.0938L449.496 83.7773V117H438.246V31.6875H452.777ZM585.234 77.5664H548.262V107.801H591.211V117H537.012V31.6875H590.625V40.9453H548.262V68.3672H585.234V77.5664ZM675.973 137.918H664.781V117H603.551V137.977H592.301L592.242 107.801H599.215C602.887 103.66 605.797 98.1133 607.945 91.1602C610.133 84.168 611.5 76.5117 612.047 68.1914L613.922 31.6875H664.957V107.801H676.09L675.973 137.918ZM612.047 107.801H653.648V40.9453H624.762L623.531 66.0234C623.023 75.8281 621.715 84.1875 619.605 91.1016C617.535 98.0156 615.016 103.582 612.047 107.801Z" fill="url(#paint7_linear_125_315)"/>
<defs>
<linearGradient id="paint0_linear_125_315" x1="88.767" y1="0" x2="88.767" y2="117" gradientUnits="userSpaceOnUse">
<stop stop-color="#1261D7"/>
<stop offset="1" stop-color="#DD4F58"/>
</linearGradient>
<linearGradient id="paint1_linear_125_315" x1="177.55" y1="15.9116" x2="177.55" y2="29.9516" gradientUnits="userSpaceOnUse">
<stop stop-color="#1261D7"/>
<stop offset="1" stop-color="#DD4F58"/>
</linearGradient>
<linearGradient id="paint2_linear_125_315" x1="97.9108" y1="18.7197" x2="97.9108" y2="116.999" gradientUnits="userSpaceOnUse">
<stop stop-color="#1261D7"/>
<stop offset="1" stop-color="#DD4F58"/>
</linearGradient>
<linearGradient id="paint3_linear_125_315" x1="117.118" y1="56.1597" x2="117.118" y2="117" gradientUnits="userSpaceOnUse">
<stop stop-color="#1261D7"/>
<stop offset="1" stop-color="#DD4F58"/>
</linearGradient>
<linearGradient id="paint4_linear_125_315" x1="177.55" y1="38.8438" x2="177.55" y2="52.8837" gradientUnits="userSpaceOnUse">
<stop stop-color="#1261D7"/>
<stop offset="1" stop-color="#DD4F58"/>
</linearGradient>
<linearGradient id="paint5_linear_125_315" x1="107.243" y1="37.4399" x2="107.243" y2="117" gradientUnits="userSpaceOnUse">
<stop stop-color="#1261D7"/>
<stop offset="1" stop-color="#DD4F58"/>
</linearGradient>
<linearGradient id="paint6_linear_125_315" x1="177.55" y1="64.584" x2="177.55" y2="78.624" gradientUnits="userSpaceOnUse">
<stop stop-color="#1261D7"/>
<stop offset="1" stop-color="#DD4F58"/>
</linearGradient>
<linearGradient id="paint7_linear_125_315" x1="525" y1="-54" x2="525" y2="403.5" gradientUnits="userSpaceOnUse">
<stop stop-color="#2A436A"/>
<stop offset="1" stop-color="#1267ED"/>
</linearGradient>
</defs>
</svg>
