<svg width="313" height="71" viewBox="0 0 313 71" fill="none" xmlns="http://www.w3.org/2000/svg">
<path fill-rule="evenodd" clip-rule="evenodd" d="M86.1524 8.12793C77.5924 2.96847 67.5601 0 56.8338 0C25.4454 0 0 25.4198 0 56.7767V56.7769H4.54729C4.54696 56.7012 4.5468 56.6255 4.5468 56.5496C4.5468 27.7013 27.9565 4.31511 56.8339 4.31511C66.7237 4.31511 75.9722 7.05808 83.8587 11.824L86.1524 8.12793Z" fill="#926139"/>
<ellipse cx="86.16" cy="11.1278" rx="3.41003" ry="3.4066" fill="#926139"/>
<path fill-rule="evenodd" clip-rule="evenodd" d="M85.9328 18.9642C77.8775 12.7684 67.7865 9.08398 56.8341 9.08398C30.4679 9.08398 9.09379 30.4366 9.09375 56.7763H13.6404C13.6405 32.9451 32.9789 13.6261 56.8341 13.6261C68.0436 13.6261 78.2558 17.8918 85.9328 24.887V18.9642Z" fill="#3A5154"/>
<path fill-rule="evenodd" clip-rule="evenodd" d="M27.2803 56.7769C27.2803 56.7769 27.2803 56.7768 27.2803 56.7768C27.2803 40.4712 40.5119 27.2529 56.8339 27.2529C73.1558 27.2529 86.3874 40.4712 86.3874 56.7768C86.3874 56.7768 86.3874 56.7769 86.3874 56.7769H81.8397C81.8404 56.7012 81.8407 56.6253 81.8407 56.5494C81.8407 42.7524 70.6448 31.5677 56.8339 31.5677C43.0229 31.5677 31.827 42.7524 31.827 56.5494C31.827 56.6253 31.8273 56.7012 31.828 56.7769H27.2803Z" fill="#3A5154"/>
<ellipse cx="86.16" cy="22.2567" rx="3.41003" ry="3.4066" fill="#3A5154"/>
<path fill-rule="evenodd" clip-rule="evenodd" d="M18.1865 56.7769V56.7766C18.1865 35.4539 35.4894 18.1685 56.8335 18.1685C68.4191 18.1685 78.8141 23.2613 85.8974 31.3283L83.0024 34.7054C76.7471 27.2349 67.3461 22.4833 56.8343 22.4833C38.0012 22.4833 22.734 37.7351 22.734 56.5493C22.734 56.6252 22.7343 56.7011 22.7348 56.7769H18.1865Z" fill="#3A5154"/>
<ellipse cx="86.16" cy="34.7469" rx="3.41003" ry="3.4066" fill="#3A5154"/>
<path d="M123.5 41.0435V56.4263H116.306V15.0266H132.144C136.769 15.0266 140.437 16.2303 143.147 18.6377C145.877 21.0451 147.242 24.2297 147.242 28.1914C147.242 32.248 145.906 35.4042 143.233 37.6599C140.579 39.9157 136.854 41.0435 132.058 41.0435H123.5ZM123.5 35.2715H132.144C134.703 35.2715 136.655 34.6744 138.001 33.4801C139.347 32.267 140.02 30.523 140.02 28.2483C140.02 26.0115 139.337 24.2297 137.972 22.9027C136.608 21.5569 134.731 20.865 132.343 20.8271H123.5V35.2715ZM165.809 38.6835H160.919V56.4263H153.753V15.0266H160.919V32.4281H164.871L177.041 15.0266H185.855L171.638 34.845L187.106 56.4263H178.462L165.809 38.6835ZM223.189 47.9245L232.288 25.6608H240.932V56.4263H234.022V36.0676L225.549 56.4263H220.857L212.355 35.9539V56.4263H205.446V25.6608H214.147L223.189 47.9245ZM262.257 56.9949C257.878 56.9949 254.324 55.6206 251.594 52.872C248.884 50.1045 247.528 46.427 247.528 41.8397V40.9867C247.528 37.9158 248.116 35.1767 249.291 32.7693C250.485 30.3429 252.153 28.4568 254.295 27.111C256.437 25.7651 258.826 25.0921 261.461 25.0921C265.65 25.0921 268.882 26.4285 271.157 29.1013C273.45 31.7741 274.597 35.5558 274.597 40.4464V43.233H254.494C254.703 45.773 255.547 47.7824 257.025 49.2609C258.523 50.7395 260.399 51.4788 262.655 51.4788C265.821 51.4788 268.399 50.1993 270.389 47.6402L274.114 51.1944C272.882 53.0332 271.233 54.4643 269.166 55.488C267.119 56.4926 264.816 56.9949 262.257 56.9949ZM261.432 30.6368C259.537 30.6368 258.001 31.3002 256.826 32.6271C255.67 33.954 254.93 35.8022 254.608 38.1717H267.773V37.6599C267.621 35.3473 267.005 33.6034 265.925 32.4281C264.844 31.2339 263.347 30.6368 261.432 30.6368ZM280.113 50.9101C282.028 48.7681 283.307 46.7398 283.952 44.8253C284.615 42.8917 285.013 40.4275 285.146 37.4324L285.544 25.6608H306.898V50.9101H311.163V65.582H304.282V56.4263H284.549V65.582H277.554L277.583 50.9101H280.113ZM288.217 50.9101H300.017V31.6035H292.255L292.056 37.4893C291.79 43.1382 290.511 47.6118 288.217 50.9101Z" fill="#43241D"/>
</svg>
