<svg width="515" height="125" viewBox="0 0 515 125" fill="none" xmlns="http://www.w3.org/2000/svg">
<path fill-rule="evenodd" clip-rule="evenodd" d="M151.022 15.06C136.017 6.01627 118.431 0.812988 99.6279 0.812988C44.6049 0.812988 0 45.3712 0 100.337V100.337H7.97155C7.97098 100.204 7.9707 100.072 7.9707 99.9391C7.9707 49.371 49.0072 8.37742 99.6284 8.37742C116.965 8.37742 133.177 13.1854 147.001 21.5392L151.022 15.06Z" fill="url(#paint0_linear_125_322)"/>
<ellipse cx="150.64" cy="20.3994" rx="5.962" ry="5.956" fill="url(#paint1_linear_125_322)"/>
<path fill-rule="evenodd" clip-rule="evenodd" d="M150.242 34.0986C136.158 23.2669 118.516 16.8257 99.3674 16.8257C53.2696 16.8257 15.8999 54.156 15.8994 100.205H23.848V100.205C23.848 58.5409 57.6589 24.7655 99.3667 24.7655C118.965 24.7655 136.82 32.2231 150.242 44.4525V34.0986Z" fill="url(#paint2_linear_125_322)"/>
<path fill-rule="evenodd" clip-rule="evenodd" d="M47.6973 100.205C47.6973 100.205 47.6973 100.205 47.6973 100.205C47.6973 71.6979 70.831 48.5884 99.3679 48.5884C127.905 48.5884 151.039 71.6979 151.039 100.205C151.039 100.205 151.039 100.205 151.039 100.205H143.085C143.086 100.073 143.087 99.9405 143.087 99.8079C143.087 75.6866 123.512 56.1324 99.3656 56.1324C75.219 56.1324 55.6443 75.6866 55.6443 99.8079C55.6443 99.9405 55.6449 100.073 55.6461 100.205H47.6973Z" fill="url(#paint3_linear_125_322)"/>
<ellipse cx="150.64" cy="39.8549" rx="5.962" ry="5.956" fill="url(#paint4_linear_125_322)"/>
<path fill-rule="evenodd" clip-rule="evenodd" d="M31.7969 100.206C31.797 62.928 62.0488 32.708 99.3662 32.708C119.622 32.708 137.796 41.6116 150.18 55.7146L145.118 61.6197C134.181 48.5591 117.745 40.252 99.3662 40.252C66.4389 40.252 39.7462 66.9168 39.7462 99.8095C39.7462 99.9419 39.7466 100.074 39.7475 100.206H31.7969Z" fill="url(#paint5_linear_125_322)"/>
<ellipse cx="150.64" cy="61.6918" rx="5.962" ry="5.956" fill="url(#paint6_linear_125_322)"/>
<path d="M212.238 70.9492V99.2856H202.693V26.9035H229.389C237.31 26.9035 243.508 28.9252 247.982 32.9685C252.489 37.0118 254.743 42.3643 254.743 49.0258C254.743 56.0519 252.539 61.4706 248.131 65.282C243.756 69.0602 237.476 70.9492 229.29 70.9492H212.238ZM212.238 63.1443H229.389C234.493 63.1443 238.404 61.9512 241.122 59.565C243.839 57.1456 245.198 53.6657 245.198 49.1252C245.198 44.8168 243.839 41.37 241.122 38.7849C238.404 36.1999 234.676 34.8576 229.936 34.7582H212.238V63.1443ZM280.624 66.7734H271.824V99.2856H262.279V26.9035H271.824V58.8193H279.281L304.585 26.9035H316.467L288.826 62.0009L318.505 99.2856H306.822L280.624 66.7734ZM371.857 87.106L390.151 45.4962H401.635V99.2856H392.438V60.1615L375.038 99.2856H368.675L350.928 59.3164V99.2856H341.731V45.4962H353.662L371.857 87.106ZM433.68 100.28C426.389 100.28 420.456 97.8937 415.883 93.1212C411.309 88.3156 409.022 81.9027 409.022 73.8823V72.1921C409.022 66.8562 410.033 62.1003 412.055 57.9244C414.11 53.7154 416.96 50.4344 420.605 48.0813C424.284 45.695 428.261 44.5019 432.536 44.5019C439.529 44.5019 444.965 46.8053 448.842 51.412C452.72 56.0188 454.659 62.614 454.659 71.1978V75.0257H418.219C418.352 80.3284 419.893 84.6203 422.842 87.9014C425.825 91.1493 429.603 92.7732 434.177 92.7732C437.425 92.7732 440.176 92.1104 442.429 90.7847C444.683 89.459 446.655 87.7025 448.345 85.5151L453.963 89.8899C449.455 96.8166 442.695 100.28 433.68 100.28ZM432.536 52.0583C428.825 52.0583 425.709 53.4171 423.19 56.1348C420.672 58.8193 419.114 62.5975 418.517 67.4693H445.462V66.7734C445.197 62.1003 443.937 58.4879 441.684 55.9359C439.43 53.3508 436.381 52.0583 432.536 52.0583ZM459.809 91.779L462.991 87.8517C466.57 83.2118 468.608 76.252 469.105 66.9722L469.95 45.4962H504.6V91.779H511.511V115.094H502.314V99.2856H464.78V115.094H455.583L455.633 91.779H459.809ZM470.696 91.779H495.404V53.9971H478.849L478.302 66.8231C477.739 77.5279 475.203 85.8466 470.696 91.779Z" fill="#244E90"/>
<defs>
<linearGradient id="paint0_linear_125_322" x1="75.5814" y1="0.812988" x2="75.5814" y2="100.337" gradientUnits="userSpaceOnUse">
<stop stop-color="#1261D7"/>
<stop offset="1" stop-color="#DD4F58"/>
</linearGradient>
<linearGradient id="paint1_linear_125_322" x1="150.64" y1="14.4434" x2="150.64" y2="26.3554" gradientUnits="userSpaceOnUse">
<stop stop-color="#1261D7"/>
<stop offset="1" stop-color="#DD4F58"/>
</linearGradient>
<linearGradient id="paint2_linear_125_322" x1="83.0706" y1="16.8257" x2="83.0706" y2="100.205" gradientUnits="userSpaceOnUse">
<stop stop-color="#1261D7"/>
<stop offset="1" stop-color="#DD4F58"/>
</linearGradient>
<linearGradient id="paint3_linear_125_322" x1="99.279" y1="48.5884" x2="99.279" y2="100.205" gradientUnits="userSpaceOnUse">
<stop stop-color="#1261D7"/>
<stop offset="1" stop-color="#DD4F58"/>
</linearGradient>
<linearGradient id="paint4_linear_125_322" x1="150.64" y1="33.8989" x2="150.64" y2="45.8109" gradientUnits="userSpaceOnUse">
<stop stop-color="#1261D7"/>
<stop offset="1" stop-color="#DD4F58"/>
</linearGradient>
<linearGradient id="paint5_linear_125_322" x1="90.9885" y1="32.708" x2="90.9885" y2="100.206" gradientUnits="userSpaceOnUse">
<stop stop-color="#1261D7"/>
<stop offset="1" stop-color="#DD4F58"/>
</linearGradient>
<linearGradient id="paint6_linear_125_322" x1="150.64" y1="55.7358" x2="150.64" y2="67.6478" gradientUnits="userSpaceOnUse">
<stop stop-color="#1261D7"/>
<stop offset="1" stop-color="#DD4F58"/>
</linearGradient>
</defs>
</svg>
