<svg width="538" height="143" viewBox="0 0 538 143" fill="none" xmlns="http://www.w3.org/2000/svg">
<path fill-rule="evenodd" clip-rule="evenodd" d="M149.907 35.5149C135.013 26.5379 117.557 21.373 98.8927 21.373C44.2757 21.373 0 65.6024 0 120.162V120.163H7.91272C7.91216 120.031 7.91188 119.899 7.91188 119.768C7.91188 69.5728 48.6456 28.8818 98.8931 28.8818C116.101 28.8818 132.194 33.6542 145.916 41.9464L149.907 35.5149Z" fill="url(#paint0_linear_128_75)"/>
<ellipse cx="149.528" cy="40.8149" rx="5.918" ry="5.91205" fill="url(#paint1_linear_128_75)"/>
<path fill-rule="evenodd" clip-rule="evenodd" d="M149.133 54.4132C135.154 43.6613 117.641 37.2676 98.6342 37.2676C52.8766 37.2676 15.7826 74.3224 15.7822 120.032H23.6717V120.032C23.6717 78.6752 57.233 45.149 98.633 45.149C118.087 45.149 135.81 52.5519 149.133 64.6915V54.4132Z" fill="url(#paint2_linear_128_75)"/>
<path fill-rule="evenodd" clip-rule="evenodd" d="M47.3457 120.032C47.3457 120.032 47.3457 120.032 47.3457 120.031C47.3457 91.7348 70.3087 68.7959 98.635 68.7959C126.961 68.7959 149.924 91.7348 149.924 120.031C149.924 120.032 149.924 120.032 149.924 120.032H142.029C142.031 119.901 142.031 119.769 142.031 119.637C142.031 95.6941 122.601 76.2843 98.6325 76.2843C74.6641 76.2843 55.2339 95.6941 55.2339 119.637C55.2339 119.769 55.2345 119.901 55.2356 120.032H47.3457Z" fill="url(#paint3_linear_128_75)"/>
<ellipse cx="149.528" cy="60.1269" rx="5.918" ry="5.91205" fill="url(#paint4_linear_128_75)"/>
<path fill-rule="evenodd" clip-rule="evenodd" d="M31.5625 120.033C31.5626 83.0297 61.5911 53.0327 98.6332 53.0327C118.739 53.0327 136.779 61.8704 149.072 75.8692L144.046 81.731C133.191 68.7669 116.876 60.5211 98.6328 60.5211C65.9485 60.5211 39.4528 86.9891 39.4528 119.639C39.4528 119.77 39.4532 119.902 39.4541 120.033H31.5625Z" fill="url(#paint5_linear_128_75)"/>
<ellipse cx="149.528" cy="81.8027" rx="5.918" ry="5.91205" fill="url(#paint6_linear_128_75)"/>
<path d="M197.491 41.711H218.613C223.652 41.711 228.136 42.6744 232.064 44.6013C236.066 46.4541 239.216 49.1221 241.513 52.6054C243.885 56.0886 245.07 60.2388 245.07 65.0561C245.07 69.7992 243.885 73.9494 241.513 77.5067C239.216 80.99 236.066 83.695 232.064 85.6219C228.136 87.4747 223.652 88.4011 218.613 88.4011H206.94V119.528H197.491V41.711ZM218.613 50.6044H206.94V79.5077H218.613C223.652 79.5077 227.728 78.2849 230.841 75.8392C234.028 73.3936 235.621 69.7992 235.621 65.0561C235.621 60.2388 234.028 56.6444 230.841 54.2729C227.728 51.8272 223.652 50.6044 218.613 50.6044ZM252.836 41.711H262.285V75.1722L292.856 41.711H304.528L270.845 78.1737L306.196 119.528H294.523L262.285 81.7311V119.528H252.836V41.711ZM329.567 119.528L342.907 64.5002L362.583 105.076L382.593 64.5002L395.933 119.528H385.928L379.814 89.7351L362.583 122.974L345.686 89.8463L339.572 119.528H329.567ZM443.449 107.633C441.744 110.227 439.854 112.524 437.779 114.525C435.704 116.452 433.184 117.971 430.22 119.083C427.255 120.121 423.55 120.64 419.103 120.64C414.508 120.64 410.358 119.491 406.652 117.193C403.021 114.896 400.131 111.746 397.981 107.744C395.906 103.668 394.869 99.0731 394.869 93.9594C394.869 92.996 394.906 92.0696 394.98 91.1803C395.054 90.2909 395.165 89.4016 395.313 88.5123C396.054 84.2879 397.537 80.5824 399.76 77.3956C401.983 74.2088 404.837 71.7261 408.32 69.9474C411.877 68.1687 415.842 67.2794 420.215 67.2794C425.032 67.2794 429.256 68.354 432.888 70.5032C436.519 72.6525 439.335 75.691 441.336 79.6189C443.337 83.4727 444.338 88.1047 444.338 93.5148C444.338 93.9594 444.338 94.4041 444.338 94.8488C444.338 95.2934 444.301 95.7381 444.227 96.1828H403.984C404.355 101.371 405.985 105.373 408.876 108.189C411.766 110.931 415.546 112.302 420.215 112.302C423.92 112.302 427.07 111.45 429.664 109.745C432.332 108.041 434.518 105.817 436.223 103.075L443.449 107.633ZM420.215 75.0611C416.065 75.0611 412.47 76.2839 409.432 78.7296C406.393 81.1011 404.651 84.3991 404.207 88.6234H434.666C434.222 84.6214 432.814 81.3605 430.442 78.8407C428.071 76.321 424.661 75.0611 420.215 75.0611ZM496.013 119.528H450.991V129.533H441.541V111.19H450.657L473.224 64.5002L495.791 111.19H504.907V129.533H496.013V119.528ZM473.224 83.7321L460.551 111.19H485.897L473.224 83.7321Z" fill="#244E90"/>
<defs>
<linearGradient id="paint0_linear_128_75" x1="74.4931" y1="21.373" x2="74.4931" y2="120.163" gradientUnits="userSpaceOnUse">
<stop stop-color="#1261D7"/>
<stop offset="1" stop-color="#DD4F58"/>
</linearGradient>
<linearGradient id="paint1_linear_128_75" x1="149.528" y1="34.9028" x2="149.528" y2="46.7269" gradientUnits="userSpaceOnUse">
<stop stop-color="#1261D7"/>
<stop offset="1" stop-color="#DD4F58"/>
</linearGradient>
<linearGradient id="paint2_linear_128_75" x1="82.4578" y1="37.2676" x2="82.4578" y2="120.032" gradientUnits="userSpaceOnUse">
<stop stop-color="#1261D7"/>
<stop offset="1" stop-color="#DD4F58"/>
</linearGradient>
<linearGradient id="paint3_linear_128_75" x1="96.3901" y1="120.032" x2="96.3901" y2="265.857" gradientUnits="userSpaceOnUse">
<stop stop-color="#1261D7"/>
<stop offset="1" stop-color="#DD4F58"/>
</linearGradient>
<linearGradient id="paint4_linear_128_75" x1="149.528" y1="54.2148" x2="149.528" y2="66.0389" gradientUnits="userSpaceOnUse">
<stop stop-color="#1261D7"/>
<stop offset="1" stop-color="#DD4F58"/>
</linearGradient>
<linearGradient id="paint5_linear_128_75" x1="91.6041" y1="53.0327" x2="91.6041" y2="120.033" gradientUnits="userSpaceOnUse">
<stop stop-color="#1261D7"/>
<stop offset="1" stop-color="#DD4F58"/>
</linearGradient>
<linearGradient id="paint6_linear_128_75" x1="149.528" y1="75.8906" x2="149.528" y2="87.7147" gradientUnits="userSpaceOnUse">
<stop stop-color="#1261D7"/>
<stop offset="1" stop-color="#DD4F58"/>
</linearGradient>
</defs>
</svg>
